<?xml version="1.0" encoding="UTF-8" standalone="no"?>
<!-- Created with Inkscape (http://www.inkscape.org/) -->

<svg
   xmlns:ns0="http://www.iki.fi/pav/software/textext/"
   xmlns:dc="http://purl.org/dc/elements/1.1/"
   xmlns:cc="http://creativecommons.org/ns#"
   xmlns:rdf="http://www.w3.org/1999/02/22-rdf-syntax-ns#"
   xmlns:svg="http://www.w3.org/2000/svg"
   xmlns="http://www.w3.org/2000/svg"
   xmlns:xlink="http://www.w3.org/1999/xlink"
   xmlns:sodipodi="http://sodipodi.sourceforge.net/DTD/sodipodi-0.dtd"
   xmlns:inkscape="http://www.inkscape.org/namespaces/inkscape"
   width="453.12543"
   height="177.16537"
   id="svg4765"
   version="1.1"
   inkscape:version="0.48.5 r10040"
   sodipodi:docname="esquema_avr_gov_sm_carga.svg">
  <sodipodi:namedview
     id="base"
     pagecolor="#ffffff"
     bordercolor="#666666"
     borderopacity="1.0"
     inkscape:pageopacity="0.0"
     inkscape:pageshadow="2"
     inkscape:zoom="2.8"
     inkscape:cx="235.46632"
     inkscape:cy="51.036814"
     inkscape:document-units="px"
     inkscape:current-layer="layer1"
     showgrid="false"
     inkscape:window-width="1920"
     inkscape:window-height="1029"
     inkscape:window-x="0"
     inkscape:window-y="0"
     inkscape:window-maximized="1"
     fit-margin-top="0"
     fit-margin-left="0"
     fit-margin-right="0"
     fit-margin-bottom="0" />
  <defs
     id="defs4767">
    <marker
       style="overflow:visible"
       id="Arrow2Mend"
       refX="0"
       refY="0"
       orient="auto"
       inkscape:stockid="Arrow2Mend">
      <path
         transform="scale(-0.6,-0.6)"
         d="M 8.7185878,4.0337352 -2.2072895,0.01601326 8.7185884,-4.0017078 c -1.7454984,2.3720609 -1.7354408,5.6174519 -6e-7,8.035443 z"
         style="fill-rule:evenodd;stroke-width:0.625;stroke-linejoin:round"
         id="path6021"
         inkscape:connector-curvature="0" />
    </marker>
    <marker
       style="overflow:visible"
       id="marker4652"
       refX="0"
       refY="0"
       orient="auto"
       inkscape:stockid="Arrow2Mend">
      <path
         transform="scale(-0.6,-0.6)"
         d="M 8.7185878,4.0337352 -2.2072895,0.01601326 8.7185884,-4.0017078 c -1.7454984,2.3720609 -1.7354408,5.6174519 -6e-7,8.035443 z"
         style="fill-rule:evenodd;stroke-width:0.625;stroke-linejoin:round"
         id="path4654"
         inkscape:connector-curvature="0" />
    </marker>
    <marker
       inkscape:stockid="Arrow1Mend"
       orient="auto"
       refY="0"
       refX="0"
       id="Arrow1Mend"
       style="overflow:visible">
      <path
         inkscape:connector-curvature="0"
         id="path5687"
         d="M 0,0 5,-5 -12.5,0 5,5 0,0 z"
         style="fill-rule:evenodd;stroke:#000000;stroke-width:1pt"
         transform="matrix(-0.4,0,0,-0.4,-4,0)" />
    </marker>
    <marker
       inkscape:stockid="Arrow1Mend"
       orient="auto"
       refY="0"
       refX="0"
       id="marker4658"
       style="overflow:visible">
      <path
         inkscape:connector-curvature="0"
         id="path4660"
         d="M 0,0 5,-5 -12.5,0 5,5 0,0 z"
         style="fill-rule:evenodd;stroke:#000000;stroke-width:1pt"
         transform="matrix(-0.4,0,0,-0.4,-4,0)" />
    </marker>
    <marker
       inkscape:stockid="Arrow1Mend"
       orient="auto"
       refY="0"
       refX="0"
       id="Arrow1Mend-7"
       style="overflow:visible">
      <path
         inkscape:connector-curvature="0"
         id="path5687-4"
         d="M 0,0 5,-5 -12.5,0 5,5 0,0 z"
         style="fill-rule:evenodd;stroke:#000000;stroke-width:1pt"
         transform="matrix(-0.4,0,0,-0.4,-4,0)" />
    </marker>
    <marker
       inkscape:stockid="Arrow1Mend"
       orient="auto"
       refY="0"
       refX="0"
       id="Arrow1Mend-3"
       style="overflow:visible">
      <path
         inkscape:connector-curvature="0"
         id="path5687-5"
         d="M 0,0 5,-5 -12.5,0 5,5 0,0 z"
         style="fill-rule:evenodd;stroke:#000000;stroke-width:1pt"
         transform="matrix(-0.4,0,0,-0.4,-4,0)" />
    </marker>
    <marker
       inkscape:stockid="Arrow1Mend"
       orient="auto"
       refY="0"
       refX="0"
       id="Arrow1Mend-1"
       style="overflow:visible">
      <path
         inkscape:connector-curvature="0"
         id="path5687-6"
         d="M 0,0 5,-5 -12.5,0 5,5 0,0 z"
         style="fill-rule:evenodd;stroke:#000000;stroke-width:1pt"
         transform="matrix(-0.4,0,0,-0.4,-4,0)" />
    </marker>
    <marker
       inkscape:stockid="Arrow1Mend"
       orient="auto"
       refY="0"
       refX="0"
       id="Arrow1Mend-18"
       style="overflow:visible">
      <path
         inkscape:connector-curvature="0"
         id="path5687-60"
         d="M 0,0 5,-5 -12.5,0 5,5 0,0 z"
         style="fill-rule:evenodd;stroke:#000000;stroke-width:1pt"
         transform="matrix(-0.4,0,0,-0.4,-4,0)" />
    </marker>
    <marker
       style="overflow:visible"
       id="marker46523"
       refX="0"
       refY="0"
       orient="auto"
       inkscape:stockid="marker46523">
      <path
         transform="scale(-0.6,-0.6)"
         d="M 8.7185878,4.0337352 -2.2072895,0.01601326 8.7185884,-4.0017078 c -1.7454984,2.3720609 -1.7354408,5.6174519 -6e-7,8.035443 z"
         style="fill:#5cb85c;fill-rule:evenodd;stroke:#5cb85c;stroke-width:0.625;stroke-linejoin:round"
         id="path5260"
         inkscape:connector-curvature="0" />
    </marker>
    <marker
       inkscape:stockid="Arrow1Mend8"
       orient="auto"
       refY="0"
       refX="0"
       id="Arrow1Mend8"
       style="overflow:visible">
      <path
         inkscape:connector-curvature="0"
         id="path5459"
         d="M 0,0 5,-5 -12.5,0 5,5 0,0 z"
         style="fill:#337ab7;fill-rule:evenodd;stroke:#337ab7;stroke-width:1pt"
         transform="matrix(-0.4,0,0,-0.4,-4,0)" />
    </marker>
    <marker
       inkscape:stockid="Arrow1Mendn"
       orient="auto"
       refY="0"
       refX="0"
       id="Arrow1Mendn"
       style="overflow:visible">
      <path
         inkscape:connector-curvature="0"
         id="path5662"
         d="M 0,0 5,-5 -12.5,0 5,5 0,0 z"
         style="fill:#5e4485;fill-rule:evenodd;stroke:#5e4485;stroke-width:1pt"
         transform="matrix(-0.4,0,0,-0.4,-4,0)" />
    </marker>
    <marker
       inkscape:stockid="Arrow1Mend85"
       orient="auto"
       refY="0"
       refX="0"
       id="Arrow1Mend85"
       style="overflow:visible">
      <path
         inkscape:connector-curvature="0"
         id="path5871"
         d="M 0,0 5,-5 -12.5,0 5,5 0,0 z"
         style="stroke-width:1pt;stroke:#d9534f;fill-rule:evenodd;fill:#d9534f"
         transform="matrix(-0.4,0,0,-0.4,-4,0)" />
    </marker>
  </defs>
  <metadata
     id="metadata4770">
    <rdf:RDF>
      <cc:Work
         rdf:about="">
        <dc:format>image/svg+xml</dc:format>
        <dc:type
           rdf:resource="http://purl.org/dc/dcmitype/StillImage" />
        <dc:title />
      </cc:Work>
    </rdf:RDF>
  </metadata>
  <g
     inkscape:label="Layer 1"
     inkscape:groupmode="layer"
     id="layer1"
     transform="translate(20.78125,-166.63664)">
    <path
       sodipodi:nodetypes="ccccc"
       inkscape:connector-curvature="0"
       id="path4343-5"
       d="m 8.5603121,223.32957 -28.8312721,0 0,-42.51969 144.15635,0 0,42.51969"
       style="fill:none;stroke:#000000;stroke-width:0.99921262;stroke-linecap:butt;stroke-linejoin:miter;stroke-miterlimit:4;stroke-opacity:1;stroke-dasharray:0.99921261, 1.99842521;stroke-dashoffset:0" />
    <path
       inkscape:connector-curvature="0"
       id="path4494"
       d="m 180.5783,322.54217 0,-35.43308"
       style="fill:none;stroke:#000000;stroke-width:1px;stroke-linecap:butt;stroke-linejoin:miter;stroke-opacity:1" />
    <path
       inkscape:connector-curvature="0"
       id="path4496"
       d="m 201.83815,287.10909 0,35.43308"
       style="fill:none;stroke:#000000;stroke-width:1px;stroke-linecap:butt;stroke-linejoin:miter;stroke-opacity:1" />
    <path
       inkscape:connector-curvature="0"
       id="path46742-5"
       d="m 209.52491,216.24295 134.55076,0"
       style="fill:none;stroke:#000000;stroke-width:1;stroke-linecap:butt;stroke-linejoin:miter;stroke-opacity:1;display:inline" />
    <path
       inkscape:connector-curvature="0"
       id="path46746-9"
       d="m 216.8923,286.93052 128.47667,0"
       style="fill:none;stroke:#000000;stroke-width:1px;stroke-linecap:butt;stroke-linejoin:miter;stroke-opacity:1;display:inline" />
    <rect
       y="202.06973"
       x="-7.5825477"
       height="106.29921"
       width="117.29472"
       id="rect51914"
       style="color:#000000;fill:#5cb85c;fill-opacity:1;fill-rule:nonzero;stroke:none;stroke-width:0.99921262;marker:none;visibility:visible;display:inline;overflow:visible;enable-background:accumulate" />
    <rect
       y="244.58942"
       x="109.71217"
       height="14.173228"
       width="42.519684"
       id="rect51916"
       style="color:#000000;fill:#999999;fill-opacity:1;fill-rule:nonzero;stroke:none;stroke-width:0.99921262;marker:none;visibility:visible;display:inline;overflow:visible;enable-background:accumulate" />
    <path
       transform="matrix(0.93952103,0,0,0.93952103,123.8863,187.86247)"
       d="m 120.20815,67.921364 c 0,26.946176 -21.844189,48.790366 -48.790364,48.790366 -26.946176,0 -48.790367,-21.84419 -48.790367,-48.790366 0,-26.946176 21.844191,-48.790367 48.790367,-48.790367 26.946175,0 48.790364,21.844191 48.790364,48.790367 z"
       sodipodi:ry="48.790367"
       sodipodi:rx="48.790367"
       sodipodi:cy="67.921364"
       sodipodi:cx="71.417786"
       id="path46736-0"
       style="color:#000000;fill:#d9534f;fill-opacity:1;fill-rule:nonzero;stroke:none;stroke-width:0.99921262;marker:none;visibility:visible;display:inline;overflow:visible;enable-background:accumulate"
       sodipodi:type="arc" />
    <text
       sodipodi:linespacing="125%"
       id="text46738-8"
       y="268.38501"
       x="173.04485"
       style="font-size:46.68490601px;font-style:normal;font-variant:normal;font-weight:normal;font-stretch:normal;line-height:125%;letter-spacing:0px;word-spacing:0px;fill:#ffffff;fill-opacity:1;stroke:none;display:inline;font-family:Arial;-inkscape-font-specification:Arial"
       xml:space="preserve"><tspan
         y="268.38501"
         x="173.04485"
         id="tspan46740-6"
         sodipodi:role="line">G</tspan></text>
    <path
       inkscape:connector-curvature="0"
       id="path46744-7"
       d="m 237.20625,251.67602 107.82968,0"
       style="fill:none;stroke:#000000;stroke-width:1.37833905px;stroke-linecap:butt;stroke-linejoin:miter;stroke-opacity:1;display:inline" />
    <path
       transform="matrix(0.2178693,0,0,0.2178693,257.36797,254.59458)"
       d="m 120.20815,67.921364 c 0,26.946176 -21.844189,48.790366 -48.790364,48.790366 -26.946176,0 -48.790367,-21.84419 -48.790367,-48.790366 0,-26.946176 21.844191,-48.790367 48.790367,-48.790367 26.946175,0 48.790364,21.844191 48.790364,48.790367 z"
       sodipodi:ry="48.790367"
       sodipodi:rx="48.790367"
       sodipodi:cy="67.921364"
       sodipodi:cx="71.417786"
       id="path46736-0-0"
       style="color:#000000;fill:#f0ad4e;fill-opacity:1;fill-rule:nonzero;stroke:none;stroke-width:0.99921262;marker:none;visibility:visible;display:inline;overflow:visible;enable-background:accumulate"
       sodipodi:type="arc" />
    <text
       sodipodi:linespacing="125%"
       id="text46738-8-6"
       y="273.26727"
       x="269.33582"
       style="font-size:10.82594967px;font-style:normal;font-variant:normal;font-weight:normal;font-stretch:normal;line-height:125%;letter-spacing:0px;word-spacing:0px;fill:#ffffff;fill-opacity:1;stroke:none;display:inline;font-family:Arial;-inkscape-font-specification:Arial"
       xml:space="preserve"><tspan
         y="273.26727"
         x="269.33582"
         id="tspan46740-6-7"
         sodipodi:role="line">V</tspan></text>
    <path
       inkscape:connector-curvature="0"
       id="path4339"
       d="m 272.70429,258.76264 0,-7.08662"
       style="fill:none;stroke:#000000;stroke-width:1px;stroke-linecap:butt;stroke-linejoin:miter;stroke-opacity:1" />
    <path
       inkscape:connector-curvature="0"
       id="path4341"
       d="m 272.70429,280.02248 0,7.08661"
       style="fill:none;stroke:#000000;stroke-width:1px;stroke-linecap:butt;stroke-linejoin:miter;stroke-opacity:1" />
    <path
       sodipodi:nodetypes="cccc"
       inkscape:connector-curvature="0"
       id="path4343"
       d="m 283.55765,269.39256 24.57045,0 0,60.23622 -108.95058,1"
       style="fill:none;stroke:#000000;stroke-width:0.99921262;stroke-linecap:butt;stroke-linejoin:miter;stroke-miterlimit:4;stroke-opacity:1;stroke-dasharray:0.9992126, 1.9984252;stroke-dashoffset:0" />
    <rect
       transform="matrix(0,1,-1,0,0,0)"
       y="-286.87753"
       x="315.45554"
       height="56.692921"
       width="28.34647"
       id="rect51914-2"
       style="color:#000000;fill:#f0ad4e;fill-opacity:1;fill-rule:nonzero;stroke:none;stroke-width:0.99921262;marker:none;visibility:visible;display:inline;overflow:visible;enable-background:accumulate" />
    <text
       sodipodi:linespacing="125%"
       id="text46738-8-3"
       y="337.43686"
       x="237.04555"
       style="font-size:21.81572151px;font-style:normal;font-variant:normal;font-weight:normal;font-stretch:normal;line-height:125%;letter-spacing:0px;word-spacing:0px;fill:#ffffff;fill-opacity:1;stroke:none;display:inline;font-family:Arial;-inkscape-font-specification:Arial"
       xml:space="preserve"><tspan
         y="337.43686"
         x="237.04555"
         id="tspan46740-6-77"
         sodipodi:role="line">AVR</tspan></text>
    <g
       transform="translate(6.7328566,109.94375)"
       id="g4408">
      <rect
         style="color:#000000;fill:#f0ad4e;fill-opacity:1;fill-rule:nonzero;stroke:none;stroke-width:0.99921262;marker:none;visibility:visible;display:inline;overflow:visible;enable-background:accumulate"
         id="rect51914-2-0"
         width="28.34647"
         height="56.692921"
         x="205.5118"
         y="-212.59842"
         transform="matrix(0,1,-1,0,0,0)" />
      <text
         xml:space="preserve"
         style="font-size:21.81572151px;font-style:normal;font-variant:normal;font-weight:normal;font-stretch:normal;line-height:125%;letter-spacing:0px;word-spacing:0px;fill:#ffffff;fill-opacity:1;stroke:none;display:inline;font-family:Arial;-inkscape-font-specification:Arial"
         x="170.72899"
         y="227.4931"
         id="text46738-8-3-7"
         sodipodi:linespacing="125%"><tspan
           sodipodi:role="line"
           id="tspan46740-6-77-4"
           x="170.72899"
           y="227.4931">Ex</tspan></text>
    </g>
    <path
       style="fill:none;stroke:#000000;stroke-width:1.00000012px;stroke-linecap:butt;stroke-linejoin:miter;stroke-opacity:1;marker-start:url(#Arrow2Mend);display:inline"
       d="m 180.5783,303.66809 0,-4.77154"
       id="path8815-5-2-0"
       inkscape:connector-curvature="0" />
    <g
       id="g5580"
       style="display:inline"
       transform="translate(-221.90031,172.04743)"
       ns0:preamble="/home/jmmauricio-s/preamble_beamer.tex"
       ns0:text="$$\\sf   I_e $$">
      <defs
         id="defs5582">
        <g
           id="g5584">
          <symbol
             id="textext-a8e364ee-0"
             overflow="visible"
             style="overflow:visible">
            <path
               id="path5587"
               d=""
               style="stroke:none"
               inkscape:connector-curvature="0" />
          </symbol>
          <symbol
             id="textext-a8e364ee-1"
             overflow="visible"
             style="overflow:visible">
            <path
               id="path5590"
               d="m 1.828125,-6.921875 -0.890625,0 0,6.921875 0.890625,0 z"
               style="stroke:none"
               inkscape:connector-curvature="0" />
          </symbol>
          <symbol
             id="textext-a8e364ee-2"
             overflow="visible"
             style="overflow:visible">
            <path
               id="path5593"
               d=""
               style="stroke:none"
               inkscape:connector-curvature="0" />
          </symbol>
          <symbol
             id="textext-a8e364ee-3"
             overflow="visible"
             style="overflow:visible">
            <path
               id="path5596"
               d="m 3,-0.765625 c -0.390625,0.28125 -0.828125,0.375 -1.125,0.375 -0.609375,0 -1.078125,-0.5 -1.09375,-1.140625 l 2.28125,0 c 0,-0.3125 -0.03125,-0.78125 -0.296875,-1.171875 -0.25,-0.359375 -0.671875,-0.5 -1.015625,-0.5 -0.84375,0 -1.5,0.75 -1.5,1.640625 0,0.890625 0.6875,1.625 1.609375,1.625 0.40625,0 0.828125,-0.109375 1.171875,-0.328125 z M 0.828125,-1.9375 C 0.984375,-2.5 1.40625,-2.734375 1.75,-2.734375 c 0.3125,0 0.765625,0.140625 0.890625,0.796875 z"
               style="stroke:none"
               inkscape:connector-curvature="0" />
          </symbol>
        </g>
      </defs>
      <g
         id="textext-a8e364ee-4">
        <g
           id="g5599"
           style="fill:#000000;fill-opacity:1">
          <use
             id="use5601"
             y="134.765"
             x="392.008"
             xlink:href="#textext-a8e364ee-1"
             width="453.5433"
             height="340.15747" />
        </g>
        <g
           id="g5603"
           style="fill:#000000;fill-opacity:1">
          <use
             id="use5605"
             y="136.259"
             x="394.776"
             xlink:href="#textext-a8e364ee-3"
             width="453.5433"
             height="340.15747" />
        </g>
      </g>
    </g>
    <path
       transform="matrix(0.2178693,0,0,0.2178693,108.32565,219.16151)"
       d="m 120.20815,67.921364 c 0,26.946176 -21.844189,48.790366 -48.790364,48.790366 -26.946176,0 -48.790367,-21.84419 -48.790367,-48.790366 0,-26.946176 21.844191,-48.790367 48.790367,-48.790367 26.946175,0 48.790364,21.844191 48.790364,48.790367 z"
       sodipodi:ry="48.790367"
       sodipodi:rx="48.790367"
       sodipodi:cy="67.921364"
       sodipodi:cx="71.417786"
       id="path46736-0-0-4"
       style="color:#000000;fill:#337ab7;fill-opacity:1;fill-rule:nonzero;stroke:none;stroke-width:0.99921262;marker:none;visibility:visible;display:inline;overflow:visible;enable-background:accumulate"
       sodipodi:type="arc" />
    <g
       ns0:text="$$\\sf \\omega $$"
       ns0:preamble="/home/jmmauricio-s/preamble_beamer.tex"
       transform="matrix(1.7516376,0,0,1.7516376,-568.16231,1.66333)"
       style="fill:#ffffff;display:inline"
       id="g6424">
      <defs
         id="defs6426">
        <g
           id="g6428">
          <symbol
             style="overflow:visible"
             overflow="visible"
             id="textext-9702cf20-0">
            <path
               inkscape:connector-curvature="0"
               style="stroke:none"
               d=""
               id="path6431" />
          </symbol>
          <symbol
             style="overflow:visible"
             overflow="visible"
             id="textext-9702cf20-1">
            <path
               inkscape:connector-curvature="0"
               style="stroke:none"
               d="m 6.03125,-3.703125 c 0,-0.453125 -0.171875,-0.703125 -0.40625,-0.703125 -0.25,0 -0.515625,0.234375 -0.515625,0.46875 0,0.09375 0.046875,0.203125 0.140625,0.296875 0.171875,0.15625 0.359375,0.421875 0.359375,0.84375 0,0.390625 -0.203125,0.96875 -0.5,1.421875 C 4.8125,-0.953125 4.4375,-0.609375 3.96875,-0.609375 3.40625,-0.609375 3.09375,-0.96875 3,-1.5 c 0.109375,-0.265625 0.34375,-0.90625 0.34375,-1.1875 0,-0.109375 -0.046875,-0.21875 -0.1875,-0.21875 -0.078125,0 -0.1875,0.03125 -0.265625,0.171875 C 2.78125,-2.53125 2.65625,-1.890625 2.65625,-1.53125 2.328125,-1.0625 1.9375,-0.609375 1.3125,-0.609375 c -0.671875,0 -0.875,-0.59375 -0.875,-1.140625 0,-1.25 1.015625,-2.296875 1.015625,-2.421875 0,-0.109375 -0.078125,-0.1875 -0.1875,-0.1875 -0.125,0 -0.203125,0.125 -0.265625,0.21875 -0.5,0.734375 -0.875,1.921875 -0.875,2.828125 0,0.6875 0.21875,1.421875 1.046875,1.421875 0.703125,0 1.171875,-0.5 1.53125,-1.046875 0.09375,0.578125 0.484375,1.046875 1.09375,1.046875 0.78125,0 1.25,-0.609375 1.609375,-1.359375 0.25,-0.484375 0.625,-1.84375 0.625,-2.453125 z"
               id="path6434" />
          </symbol>
        </g>
      </defs>
      <g
         style="fill:#ffffff"
         id="textext-9702cf20-2">
        <g
           style="fill:#ffffff;fill-opacity:1"
           id="g6437">
          <use
             height="340.15747"
             width="453.5433"
             style="fill:#ffffff"
             xlink:href="#textext-9702cf20-1"
             x="392.008"
             y="134.765"
             id="use6439" />
        </g>
      </g>
    </g>
    <rect
       transform="matrix(0,1,-1,0,0,0)"
       y="-102.62556"
       x="166.63664"
       height="56.692921"
       width="28.34647"
       id="rect51914-2-1"
       style="color:#000000;fill:#337ab7;fill-opacity:1;fill-rule:nonzero;stroke:none;stroke-width:0.99921262;marker:none;visibility:visible;display:inline;overflow:visible;enable-background:accumulate" />
    <text
       sodipodi:linespacing="125%"
       id="text46738-8-3-3"
       y="188.61795"
       x="49.549999"
       style="font-size:21.81572151px;font-style:normal;font-variant:normal;font-weight:normal;font-stretch:normal;line-height:125%;letter-spacing:0px;word-spacing:0px;fill:#ffffff;fill-opacity:1;stroke:none;display:inline;font-family:Arial;-inkscape-font-specification:Arial"
       xml:space="preserve"><tspan
         y="188.61795"
         x="49.549999"
         id="tspan46740-6-77-1"
         sodipodi:role="line">GOV</tspan></text>
    <text
       sodipodi:linespacing="125%"
       id="text46738-8-3-3-5"
       y="247.26747"
       x="8.9300079"
       style="font-size:21.81572151px;font-style:normal;font-variant:normal;font-weight:normal;font-stretch:normal;line-height:125%;letter-spacing:0px;word-spacing:0px;fill:#ffffff;fill-opacity:1;stroke:none;display:inline;font-family:Arial;-inkscape-font-specification:Arial"
       xml:space="preserve"><tspan
         y="247.26747"
         x="8.9300079"
         id="tspan46740-6-77-1-4"
         sodipodi:role="line">Máquina</tspan><tspan
         id="tspan5843"
         y="274.53711"
         x="8.9300079"
         sodipodi:role="line">primaria</tspan></text>
    <path
       inkscape:connector-curvature="0"
       id="path4862"
       d="m 207.716,195.66001 46.75279,0"
       style="stroke-linejoin:miter;enable-background:accumulate;marker-end:url(#Arrow1Mend85);stroke-opacity:1;fill-rule:nonzero;color:#000000;fill-opacity:1;stroke-dashoffset:0;visibility:visible;stroke:#d9534f;stroke-linecap:butt;stroke-miterlimit:4;marker:none;stroke-dasharray:none;overflow:visible;stroke-width:2;display:inline;fill:#d9534f" />
    <g
       style="font-style:normal;font-variant:normal;font-weight:normal;font-stretch:normal;letter-spacing:normal;word-spacing:normal;text-anchor:start;fill:#d9534f;stroke:#000000;stroke-width:0.69136339000000002;stroke-linecap:butt;stroke-linejoin:miter;stroke-miterlimit:10.43299960999999954;stroke-opacity:1;stroke-dasharray:none;stroke-dashoffset:0"
       id="content"
       transform="matrix(1.4356752,0,0,-1.4572398,-108.34803,1218.5709)"
       xml:space="preserve"
       stroke-miterlimit="10.433"
       font-style="normal"
       font-variant="normal"
       font-weight="normal"
       font-stretch="normal"
       font-size-adjust="none"
       letter-spacing="normal"
       word-spacing="normal"
       ns0:text="$\\sf P_g $"
       ns0:preamble="/home/jmmauricio/Documents/public/jmmauricio6/quilombo/svg/serif_inkscape_template.tex"><path
         style="fill:#d9534f;stroke-width:0"
         inkscape:connector-curvature="0"
         d="m 226.93,710 0.12,0 0.11,0.01 0.12,0.01 0.11,0.02 0.11,0.02 0.1,0.03 0.11,0.03 0.1,0.03 0.1,0.05 0.1,0.04 0.1,0.05 0.09,0.05 0.09,0.06 0.09,0.06 0.08,0.06 0.08,0.07 0.08,0.07 0.07,0.07 0.07,0.08 0.06,0.08 0.06,0.08 0.06,0.08 0.05,0.09 0.05,0.09 0.04,0.09 0.04,0.09 0.03,0.1 0.02,0.1 0.02,0.1 0.02,0.1 0.01,0.1 0,0.1 c 0,1.07 -0.98,2.01 -2.36,2.01 h -2.47 v -6.9 h 0.88 V 710 l -0.03,0.57 v 2.89 h 1.41 c 1.09,0 1.77,-0.6 1.77,-1.45 0,-0.78 -0.63,-1.44 -1.77,-1.44 h -1.41 l 0.03,-0.57 z"
         id="path3208" /><path
         style="fill:#d9534f;stroke-width:0"
         inkscape:connector-curvature="0"
         d="m 233.3,708.79 -0.02,0 -0.01,0 -0.02,0 -0.02,0 -0.02,0 -0.03,0 -0.02,0 -0.03,-0.01 -0.03,0 -0.03,0 -0.03,0 -0.03,0 -0.04,-0.01 -0.03,0 -0.04,-0.01 -0.03,0 -0.04,-0.01 -0.04,0 -0.04,-0.01 -0.04,-0.01 -0.05,0 -0.04,-0.01 -0.04,-0.01 -0.05,-0.01 -0.04,-0.01 -0.05,-0.02 -0.05,-0.01 -0.04,-0.01 -0.05,-0.02 -0.05,-0.02 -0.05,-0.01 -0.05,-0.02 -0.01,-0.01 c -0.25,0.17 -0.5,0.22 -0.7,0.22 l -0.01,-0.43 c 0.38,0 0.66,-0.24 0.66,-0.71 0,-0.54 -0.35,-0.7 -0.65,-0.7 h 0 c -0.37,0 -0.65,0.23 -0.65,0.7 0,0.54 0.34,0.71 0.64,0.71 l 0.01,0.43 c -0.68,0 -1.19,-0.54 -1.19,-1.14 0,-0.24 0.08,-0.49 0.24,-0.68 -0.09,-0.12 -0.2,-0.32 -0.2,-0.58 0,-0.27 0.11,-0.45 0.18,-0.53 -0.39,-0.22 -0.46,-0.54 -0.46,-0.71 0,-0.53 0.73,-0.94 1.63,-0.94 v 0.43 c -0.58,0 -1.1,0.2 -1.1,0.5 0,0.04 0,0.45 0.56,0.45 h 0.67 c 0.16,0 0.98,0 0.98,-0.45 0,-0.3 -0.52,-0.5 -1.11,-0.5 v -0.43 c 0.91,0 1.64,0.41 1.64,0.94 0,0.98 -1.22,0.98 -1.52,0.98 h -0.65 c -0.11,0 -0.41,0 -0.41,0.36 0,0.14 0.05,0.21 0.06,0.23 0.24,-0.16 0.49,-0.21 0.67,-0.21 0.69,0 1.19,0.54 1.19,1.14 0,0.22 -0.06,0.42 -0.18,0.61 -0.03,0.04 -0.03,0.05 -0.03,0.06 0,0.02 0.42,0.02 0.45,0.02 0.01,0 0.27,0 0.52,-0.02 z"
         id="path3210" /></g>    <rect
       y="202.06973"
       x="343.80035"
       height="106.29921"
       width="88.543808"
       id="rect51914-3"
       style="color:#000000;fill:#5e4485;fill-opacity:1;fill-rule:nonzero;stroke:none;stroke-width:0.99921262;marker:none;visibility:visible;display:inline;overflow:visible;enable-background:accumulate" />
    <text
       sodipodi:linespacing="125%"
       id="text46738-8-3-3-5-7"
       y="260.86502"
       x="358.25674"
       style="font-size:21.81572151px;font-style:normal;font-variant:normal;font-weight:normal;font-stretch:normal;line-height:125%;letter-spacing:0px;word-spacing:0px;fill:#ffffff;fill-opacity:1;stroke:none;display:inline;font-family:Arial;-inkscape-font-specification:Arial"
       xml:space="preserve"><tspan
         y="260.86502"
         x="358.25674"
         id="tspan46740-6-77-1-4-5"
         sodipodi:role="line">Carga</tspan></text>
    <path
       inkscape:connector-curvature="0"
       id="path4862-8"
       d="m 337.71091,195.34774 42.91843,0"
       style="color:#000000;fill:#0000ff;fill-opacity:1;fill-rule:nonzero;stroke:#5e4485;stroke-width:2;stroke-linecap:butt;stroke-linejoin:miter;stroke-miterlimit:4;stroke-opacity:1;stroke-dasharray:none;stroke-dashoffset:0;marker:none;marker-end:url(#Arrow1Mendn);visibility:visible;display:inline;overflow:visible;enable-background:accumulate" />
    <path
       inkscape:connector-curvature="0"
       id="path4862-2"
       d="m 130.10206,196.8461 42.51969,0"
       style="fill:#0000ff;stroke:#5cb85c;stroke-width:2;stroke-linecap:butt;stroke-linejoin:miter;stroke-miterlimit:4;stroke-opacity:1;stroke-dasharray:none;marker-end:url(#marker46523)" />
    <g
       style="font-style:normal;font-variant:normal;font-weight:normal;font-stretch:normal;letter-spacing:normal;word-spacing:normal;text-anchor:start;fill:#5cb85c;fill-opacity:1;fill-rule:evenodd;stroke:#000000;stroke-width:0.69136339;stroke-linecap:butt;stroke-linejoin:miter;stroke-miterlimit:10.43299961;stroke-opacity:1;stroke-dasharray:none;stroke-dashoffset:0"
       ns0:preamble="/home/jmmauricio/Documents/public/jmmauricio6/quilombo/svg/serif_inkscape_template.tex"
       ns0:text="$\\sf P_m$"
       word-spacing="normal"
       letter-spacing="normal"
       font-size-adjust="none"
       font-stretch="normal"
       font-weight="normal"
       font-variant="normal"
       font-style="normal"
       stroke-miterlimit="10.433"
       xml:space="preserve"
       transform="matrix(1.4356752,0,0,-1.4572398,-188.28081,1217.7057)"
       id="g3570"><path
         id="path3572"
         d="m 226.93,710 0.12,0 0.11,0.01 0.12,0.01 0.11,0.02 0.11,0.02 0.1,0.03 0.11,0.03 0.1,0.03 0.1,0.05 0.1,0.04 0.1,0.05 0.09,0.05 0.09,0.06 0.09,0.06 0.08,0.06 0.08,0.07 0.08,0.07 0.07,0.07 0.07,0.08 0.06,0.08 0.06,0.08 0.06,0.08 0.05,0.09 0.05,0.09 0.04,0.09 0.04,0.09 0.03,0.1 0.02,0.1 0.02,0.1 0.02,0.1 0.01,0.1 0,0.1 c 0,1.07 -0.98,2.01 -2.36,2.01 h -2.47 v -6.9 h 0.88 V 710 l -0.03,0.57 v 2.89 h 1.41 c 1.09,0 1.77,-0.6 1.77,-1.45 0,-0.78 -0.63,-1.44 -1.77,-1.44 h -1.41 l 0.03,-0.57 z"
         style="fill:#5cb85c;stroke-width:0"
         inkscape:connector-curvature="0" /><path
         id="path3574"
         d="m 235.09,707.69 0,0.05 0,0.05 0,0.05 -0.01,0.05 0,0.05 -0.01,0.05 -0.01,0.05 -0.01,0.05 -0.01,0.05 -0.01,0.04 -0.02,0.05 -0.02,0.05 -0.02,0.04 -0.02,0.04 -0.02,0.04 -0.03,0.04 -0.03,0.04 -0.03,0.04 -0.03,0.03 -0.04,0.03 -0.04,0.03 -0.04,0.03 -0.05,0.03 -0.05,0.02 -0.05,0.02 -0.05,0.02 -0.03,0.01 -0.03,0.01 -0.04,0.01 -0.03,0 -0.03,0.01 -0.03,0 -0.04,0.01 -0.03,0 -0.04,0 -0.04,0.01 -0.04,0 -0.04,0 c -0.58,0 -0.94,-0.34 -1.11,-0.57 -0.07,0.19 -0.25,0.57 -0.94,0.57 -0.4,0 -0.78,-0.16 -1.09,-0.53 v 0.51 h -0.55 v -3.14 h 0.6 v 1.69 c 0,0.46 0.2,1.01 0.73,1.01 0.72,0 0.72,-0.49 0.72,-0.69 v -2.01 h 0.61 v 1.69 c 0,0.46 0.19,1.01 0.73,1.01 0.71,0 0.71,-0.49 0.71,-0.69 v -2.01 h 0.61 z"
         style="fill:#5cb85c;stroke-width:0"
         inkscape:connector-curvature="0" /></g>    <g
       id="g3850"
       transform="matrix(1.4356752,0,0,-1.4572398,20.274946,1216.0812)"
       xml:space="preserve"
       stroke-miterlimit="10.433"
       font-style="normal"
       font-variant="normal"
       font-weight="normal"
       font-stretch="normal"
       font-size-adjust="none"
       letter-spacing="normal"
       word-spacing="normal"
       ns0:text="$\\sf P_l $"
       ns0:preamble="/home/jmmauricio/Documents/public/jmmauricio6/quilombo/svg/serif_inkscape_template.tex"
       style="font-style:normal;font-variant:normal;font-weight:normal;font-stretch:normal;letter-spacing:normal;word-spacing:normal;text-anchor:start;fill:#5e4485;fill-opacity:1;fill-rule:evenodd;stroke:#000000;stroke-width:0.69136339;stroke-linecap:butt;stroke-linejoin:miter;stroke-miterlimit:10.43299961;stroke-opacity:1;stroke-dasharray:none;stroke-dashoffset:0"><path
         style="fill:#5e4485;stroke-width:0"
         d="m 226.93,710 0.12,0 0.11,0.01 0.12,0.01 0.11,0.02 0.11,0.02 0.1,0.03 0.11,0.03 0.1,0.03 0.1,0.05 0.1,0.04 0.1,0.05 0.09,0.05 0.09,0.06 0.09,0.06 0.08,0.06 0.08,0.07 0.08,0.07 0.07,0.07 0.07,0.08 0.06,0.08 0.06,0.08 0.06,0.08 0.05,0.09 0.05,0.09 0.04,0.09 0.04,0.09 0.03,0.1 0.02,0.1 0.02,0.1 0.02,0.1 0.01,0.1 0,0.1 c 0,1.07 -0.98,2.01 -2.36,2.01 h -2.47 v -6.9 h 0.88 V 710 l -0.03,0.57 v 2.89 h 1.41 c 1.09,0 1.77,-0.6 1.77,-1.45 0,-0.78 -0.63,-1.44 -1.77,-1.44 h -1.41 l 0.03,-0.57 z"
         id="path3852"
         inkscape:connector-curvature="0" /><polygon
         style="fill:#5e4485;stroke-width:0"
         points="230.97,705.63 230.97,710.46 230.38,710.46 230.38,705.63 "
         id="polygon3854" /></g>    <g
       style="font-style:normal;font-variant:normal;font-weight:normal;font-stretch:normal;letter-spacing:normal;word-spacing:normal;text-anchor:start;fill:none;stroke:#000000;stroke-linecap:butt;stroke-linejoin:miter;stroke-miterlimit:10.43299961;stroke-opacity:1;stroke-dasharray:none;stroke-dashoffset:0;display:inline"
       ns0:preamble=""
       ns0:text="$$\\sf  P_m^\\star $$"
       word-spacing="normal"
       letter-spacing="normal"
       font-size-adjust="none"
       font-stretch="normal"
       font-weight="normal"
       font-variant="normal"
       font-style="normal"
       stroke-miterlimit="10.433"
       xml:space="preserve"
       transform="matrix(1,0,0,-1,-397.46822,882.68216)"
       id="g4125"><path
         id="path4127"
         d="m 392.42,710 0.11,0 0.12,0.01 0.11,0.01 0.11,0.02 0.11,0.02 0.11,0.03 0.1,0.03 0.1,0.03 0.11,0.05 0.09,0.04 0.1,0.05 0.09,0.05 0.09,0.06 0.09,0.06 0.08,0.06 0.08,0.07 0.08,0.07 0.07,0.07 0.07,0.08 0.07,0.08 0.06,0.08 0.05,0.08 0.05,0.09 0.05,0.09 0.04,0.09 0.04,0.09 0.03,0.1 0.03,0.1 0.02,0.1 0.01,0.1 0.01,0.1 0,0.1 c 0,1.07 -0.98,2.01 -2.35,2.01 h -2.48 v -6.9 h 0.89 V 710 l -0.03,0.57 v 2.89 h 1.4 c 1.09,0 1.77,-0.6 1.77,-1.45 0,-0.78 -0.63,-1.44 -1.77,-1.44 h -1.4 l 0.03,-0.57 z"
         inkscape:connector-curvature="0"
         style="fill:#000000;stroke-width:0" /><path
         id="path4129"
         d="m 398.93,713.23 0.01,0.01 0.01,0 0,0 0.01,0.01 0,0 0.01,0 0,0 0.01,0 0,0.01 0.01,0 0,0 0,0 0.01,0.01 0,0 0,0 0.01,0 0,0.01 0,0 0.01,0 0,0 0.01,0.01 0,0 0,0.01 0.01,0 0,0 0.01,0.01 0,0 0,0.01 0,0 0,0 0.01,0.01 0,0 0,0 0,0.01 0,0 0,0 0,0.01 0,0 0,0 0,0.01 c 0,0.06 -0.06,0.09 -0.1,0.09 -0.03,0 -1.19,-0.22 -1.38,-0.26 l -0.16,1.28 c -0.01,0.1 -0.02,0.18 -0.11,0.18 -0.07,0 -0.1,-0.06 -0.11,-0.17 l -0.15,-1.29 -1.28,0.25 c -0.09,0.01 -0.1,0.01 -0.11,0.01 -0.03,0 -0.09,-0.03 -0.09,-0.09 0,-0.03 0.01,-0.05 0.03,-0.08 0.03,-0.02 1.13,-0.52 1.28,-0.6 l -0.63,-1.15 c -0.05,-0.08 -0.05,-0.1 -0.05,-0.11 0,-0.05 0.04,-0.1 0.09,-0.1 0.06,0 0.21,0.17 0.48,0.47 0.17,0.2 0.36,0.39 0.54,0.58 0.34,-0.35 0.84,-0.9 0.92,-0.98 0.06,-0.05 0.07,-0.07 0.11,-0.07 0.05,0 0.09,0.05 0.09,0.1 0,0.03 -0.09,0.18 -0.13,0.27 l -0.56,0.99 z"
         inkscape:connector-curvature="0"
         style="fill:#000000;stroke-width:0" /><path
         id="path4131"
         d="m 400.57,706.72 0,0.05 0,0.05 0,0.05 -0.01,0.05 0,0.05 -0.01,0.05 -0.01,0.05 -0.01,0.05 -0.01,0.05 -0.01,0.05 -0.02,0.04 -0.01,0.05 -0.02,0.04 -0.02,0.04 -0.03,0.04 -0.03,0.04 -0.02,0.04 -0.04,0.04 -0.03,0.03 -0.04,0.03 -0.04,0.03 -0.04,0.03 -0.05,0.03 -0.04,0.02 -0.06,0.03 -0.05,0.01 -0.03,0.01 -0.03,0.01 -0.03,0.01 -0.04,0 -0.03,0.01 -0.03,0 -0.04,0.01 -0.03,0 -0.04,0.01 -0.04,0 -0.04,0 -0.04,0 c -0.58,0 -0.94,-0.34 -1.11,-0.56 -0.07,0.18 -0.24,0.56 -0.94,0.56 -0.4,0 -0.78,-0.16 -1.09,-0.53 v 0.51 h -0.55 v -3.14 h 0.6 v 1.69 c 0,0.46 0.2,1.01 0.73,1.01 0.72,0 0.72,-0.49 0.72,-0.69 v -2.01 h 0.61 v 1.69 c 0,0.46 0.19,1.01 0.73,1.01 0.72,0 0.72,-0.49 0.72,-0.69 v -2.01 h 0.6 z"
         inkscape:connector-curvature="0"
         style="fill:#000000;stroke-width:0" /></g>  </g>
</svg>
